<?xml version="1.0" encoding="UTF-8"?>
<svg id="Layer_1" data-name="Layer 1" xmlns="http://www.w3.org/2000/svg" viewBox="0 0 1769.82 424.61">
  <defs>
    <style>
      .cls-1 {
        fill: #00f19c;
      }

      .cls-1, .cls-2 {
        stroke-width: 0px;
      }

      .cls-2 {
        fill: #001c5c;
      }
    </style>
  </defs>
  <path class="cls-1" d="M1602.31,131h162.31c2.87,0,5.2,2.33,5.2,5.2v162.31h-162.31c-2.87,0-5.2-2.33-5.2-5.2v-162.31h0Z"/>
  <g>
    <path class="cls-2" d="M1072.27,147.1c-7.79,11.11-15.16,21.63-22.29,31.85-7.58-3.75-14.73-7.67-22.19-10.84-8.77-3.75-18.1-5.28-27.7-4.77-8.35.45-13.69,5.45-13.35,12.48.21,4.47,2.98,7.41,6.64,8.69,8.2,2.87,16.57,5.39,25,7.47,15.22,3.79,30.13,8.13,42.95,17.72,9.5,7.09,13.95,17.06,14.95,28.38,1.15,12.97-1.02,25.47-8.96,36.26-8.77,11.9-21.02,18.65-35.2,21.23-35.75,6.54-68.5-.38-97.2-23.44-.43-.34-.75-.83-1.47-1.68,8.28-10.01,16.54-19.97,24.12-29.15,9.94,5.03,19.08,10.39,28.81,14.35,10.43,4.24,21.63,5.66,32.85,3.64,3.43-.62,7.26-2.47,9.6-4.98,4.71-5.07,2.6-12.9-4.49-15.82-7.9-3.24-16.18-5.71-24.47-7.75-12.39-3.07-24.76-6.2-35.96-12.46-14.5-8.09-21.74-20.29-22.59-37.3-1.47-30.15,21.31-50.8,49.1-54.53,24.53-3.28,47.55.45,69.2,12.37,4.24,2.34,8.13,5.28,12.69,8.28h-.04Z"/>
    <path class="cls-2" d="M909.02,147.1c-7.79,11.11-15.16,21.63-22.29,31.85-7.58-3.75-14.73-7.67-22.19-10.84-8.77-3.75-18.1-5.28-27.7-4.77-8.35.45-13.69,5.45-13.35,12.48.21,4.47,2.98,7.41,6.64,8.69,8.2,2.87,16.57,5.39,25,7.47,15.22,3.79,30.13,8.13,42.95,17.72,9.5,7.09,13.95,17.06,14.95,28.38,1.15,12.97-1.02,25.47-8.96,36.26-8.77,11.9-21.02,18.65-35.2,21.23-35.75,6.54-68.5-.38-97.2-23.44-.43-.34-.75-.83-1.47-1.68,8.28-10.01,16.54-19.97,24.12-29.15,9.94,5.03,19.08,10.39,28.81,14.35,10.43,4.24,21.63,5.66,32.85,3.64,3.43-.62,7.26-2.47,9.6-4.98,4.71-5.07,2.6-12.9-4.49-15.82-7.9-3.24-16.18-5.71-24.47-7.75-12.39-3.07-24.76-6.2-35.96-12.46-14.5-8.09-21.74-20.29-22.59-37.3-1.47-30.15,21.31-50.8,49.1-54.53,24.53-3.28,47.55.45,69.2,12.37,4.24,2.34,8.13,5.28,12.69,8.28h-.04Z"/>
    <path class="cls-2" d="M565.21,151.87c-10.86,10.24-21.55,20.33-32.24,30.43-21.44-23.32-50.21-14.65-62.54-.4-15.46,17.84-14.14,43.52,3.34,59.85,14.1,13.16,39.73,16.4,58.26-2.66l32.79,29.89c-17.76,21.8-53.12,36.03-88.39,25.3-35.24-10.73-63.47-45.01-61.32-88.85,1.75-35.66,25.38-67.45,59.94-78.7,37.24-12.14,73.78,4.58,90.15,25.17v-.02Z"/>
    <path class="cls-2" d="M755.84,292.64c-4.58-10.97-9.22-21.89-13.8-32.88-17.57-42.27-35.13-84.53-52.63-126.82-.98-2.34-2.28-3.36-4.6-3.51v-.04h-37.13v.04c-2.56.11-3.79,1.21-4.79,3.66-8.03,19.59-16.18,39.11-24.32,58.66-12.05,28.92-24.15,57.83-36.2,86.75-2.62,6.28-5.07,12.63-7.84,19.57,15.69,0,30.73.04,45.74-.11.85,0,2.09-1.34,2.47-2.32,12.52-32.45,24.95-64.92,37.43-97.39,1.66-4.3,3.45-8.54,5.45-13.41.77,1.3,12.52,30.77,17.91,45.1.43,1.13-.26,3.36-1.19,4.24-9.35,8.64-18.89,17.08-28.34,25.61-2.68,2.43-5.3,4.92-8.75,8.11,2.7.13,4.24.26,5.79.26,14.07,0,28.15.13,42.22-.06,2.79-.04,5.22,1.72,6.17,4.34,2.7,7.39,6.05,14.54,8.75,21.93.87,2.38,2.04,3.45,4.07,3.75l.81.09h36.88s4.47-.11,7.75-.3c-.72-2.04-1.21-3.66-1.85-5.2v-.06Z"/>
    <path class="cls-2" d="M1267.31,292.64c-4.58-10.97-9.22-21.89-13.8-32.88-17.57-42.27-35.13-84.53-52.63-126.82-.98-2.34-2.28-3.36-4.6-3.51v-.04h-37.13v.04c-2.56.11-3.79,1.21-4.79,3.66-8.03,19.59-16.18,39.11-24.32,58.66-12.05,28.92-24.15,57.83-36.2,86.75-2.62,6.28-5.07,12.63-7.84,19.57,15.69,0,30.73.04,45.74-.11.85,0,2.09-1.34,2.47-2.32,12.52-32.45,24.95-64.92,37.43-97.39,1.66-4.3,3.45-8.54,5.45-13.41.77,1.3,12.52,30.77,17.91,45.1.43,1.13-.26,3.36-1.19,4.24-9.35,8.64-18.89,17.08-28.34,25.61-2.68,2.43-5.3,4.92-8.75,8.11,2.7.13,4.24.26,5.79.26,14.07,0,28.15.13,42.22-.06,2.79-.04,5.22,1.72,6.17,4.34,2.7,7.39,6.05,14.54,8.75,21.93.87,2.38,2.04,3.45,4.07,3.75l.81.09h36.88s4.47-.11,7.75-.3c-.72-2.04-1.21-3.66-1.85-5.2v-.06Z"/>
    <path class="cls-2" d="M1570.34,292.64c-4.58-10.97-9.22-21.89-13.8-32.88-17.57-42.27-35.13-84.53-52.63-126.82-.98-2.34-2.28-3.36-4.6-3.51v-.04h-37.13v.04c-2.56.11-3.79,1.21-4.79,3.66-8.03,19.59-16.18,39.11-24.32,58.66-12.05,28.92-24.15,57.83-36.2,86.75-2.62,6.28-5.07,12.63-7.84,19.57,15.69,0,30.73.04,45.74-.11.85,0,2.09-1.34,2.47-2.32,12.52-32.45,24.95-64.92,37.43-97.39,1.66-4.3,3.45-8.54,5.45-13.41.77,1.3,12.52,30.77,17.91,45.1.43,1.13-.26,3.36-1.19,4.24-9.35,8.64-18.89,17.08-28.34,25.61-2.68,2.43-5.3,4.92-8.75,8.11,2.7.13,4.24.26,5.79.26,14.07,0,28.15.13,42.22-.06,2.79-.04,5.22,1.72,6.17,4.34,2.7,7.39,6.05,14.54,8.75,21.93.87,2.38,2.04,3.45,4.07,3.75l.81.09h36.88s4.47-.11,7.75-.3c-.72-2.04-1.21-3.66-1.85-5.2v-.06Z"/>
    <path class="cls-2" d="M1412.29,130.11h-35.69c-8.18,0-8.33-.04-10.99,7.45-11.03,31-35.13,99.27-35.35,99.24-.15,0-29.96-84.7-36.54-103.61-.85-2.45-2.28-3.17-4.77-3.13-12.18.11-24.36.04-36.56.04h-10.16c.47,1.55.7,2.64,1.13,3.68,7.05,17.82,14.14,35.62,21.19,53.44,14.27,36.03,28.53,72.05,42.69,108.12.87,2.24,1.96,3.17,4.22,3.26h36.15c.13.02.26.02.36.02h.68v-.06c1.92-.23,2.96-1.26,3.68-3.19,1.51-4.02,3.11-7.98,4.68-11.99,8.58-21.68,17.18-43.33,25.76-65.01,8.9-22.46,17.78-44.95,26.68-67.43,2.66-6.73,5.28-13.46,8.2-20.87h-5.39v.02Z"/>
  </g>
  <g>
    <path class="cls-2" d="M1651.08,272.78c-6.2,0-11.52-1.06-15.95-3.18-4.43-2.12-7.83-5-10.19-8.64-2.36-3.64-3.54-7.73-3.54-12.26s1.16-8.86,3.47-12.41c2.31-3.54,5.98-6.33,11-8.34,5.02-2.02,11.57-3.03,19.64-3.03h21.12v13.44h-18.61c-5.42,0-9.13.89-11.15,2.66-2.02,1.77-3.03,3.99-3.03,6.65,0,2.95,1.16,5.29,3.47,7.02,2.31,1.72,5.49,2.58,9.53,2.58s7.29-.91,10.34-2.73c3.05-1.82,5.27-4.5,6.65-8.05l3.54,10.63c-1.68,5.12-4.73,9.01-9.16,11.67-4.43,2.66-10.14,3.99-17.13,3.99ZM1675.31,271.6v-15.51l-1.48-3.4v-27.77c0-4.92-1.5-8.76-4.5-11.52-3-2.76-7.61-4.14-13.81-4.14-4.23,0-8.4.66-12.48,1.99-4.09,1.33-7.56,3.13-10.41,5.39l-8.27-16.1c4.33-3.05,9.55-5.41,15.66-7.09,6.1-1.67,12.31-2.51,18.61-2.51,12.11,0,21.51,2.86,28.21,8.57,6.7,5.71,10.04,14.62,10.04,26.73v45.34h-21.56Z"/>
    <path class="cls-2" d="M1729.22,181.06c-4.24,0-7.68-1.23-10.34-3.69-2.66-2.46-3.99-5.51-3.99-9.16s1.33-6.69,3.99-9.16c2.66-2.46,6.1-3.69,10.34-3.69s7.68,1.16,10.34,3.47c2.66,2.31,3.99,5.29,3.99,8.94,0,3.84-1.31,7.02-3.91,9.53-2.61,2.51-6.08,3.77-10.41,3.77ZM1717.7,271.6v-79.46h23.04v79.46h-23.04Z"/>
  </g>
  <g>
    <polygon class="cls-2" points="67.28 212.25 163.57 128.82 113.95 0 0 295.83 227.9 295.83 195.76 212.25 67.28 212.25"/>
    <polygon class="cls-1" points="324.2 212.35 227.9 295.79 277.53 424.61 391.48 128.76 163.57 128.76 195.72 212.33 324.2 212.35"/>
  </g>
</svg>